<svg xmlns="http://www.w3.org/2000/svg" width="210" viewBox="0 0 210 34.5" height="34.5" version="1.0"><defs><clipPath id="a"><path d="M 146.417969 1.449219 L 177.488281 1.449219 L 177.488281 32.519531 L 146.417969 32.519531 Z M 146.417969 1.449219"/></clipPath></defs><g fill="#382CB8"><g><g><path d="M 7.296875 -25.046875 C 9.253906 -25.046875 10.691406 -24.488281 11.609375 -23.375 C 12.523438 -22.269531 12.984375 -20.753906 12.984375 -18.828125 L 12.984375 -6.1875 C 12.984375 -4.257812 12.523438 -2.742188 11.609375 -1.640625 C 10.691406 -0.546875 9.253906 0 7.296875 0 L 1.4375 0 L 1.4375 -25.046875 Z M 7.265625 -2.546875 C 8.265625 -2.546875 9.007812 -2.847656 9.5 -3.453125 C 9.988281 -4.054688 10.234375 -4.929688 10.234375 -6.078125 L 10.234375 -18.96875 C 10.234375 -20.113281 9.988281 -20.988281 9.5 -21.59375 C 9.007812 -22.195312 8.253906 -22.5 7.234375 -22.5 L 4.21875 -22.5 L 4.21875 -2.546875 Z M 7.265625 -2.546875" transform="translate(75.157 30.505)"/></g></g></g><g fill="#382CB8"><g><g><path d="M 4.265625 -5.046875 L 3.296875 0 L 0.71875 0 L 5.515625 -25.046875 L 9.546875 -25.046875 L 14.34375 0 L 11.5625 0 L 10.59375 -5.046875 Z M 4.609375 -7.4375 L 10.203125 -7.4375 L 7.375 -21.890625 Z M 4.609375 -7.4375" transform="translate(89.32 30.505)"/></g></g></g><g fill="#382CB8"><g><g><path d="M 6.90625 -25.046875 C 8.882812 -25.046875 10.3125 -24.503906 11.1875 -23.421875 C 12.070312 -22.335938 12.515625 -20.835938 12.515625 -18.921875 L 12.515625 -15.921875 C 12.515625 -13.921875 12.046875 -12.410156 11.109375 -11.390625 C 10.171875 -10.378906 8.695312 -9.875 6.6875 -9.875 L 4.21875 -9.875 L 4.21875 0 L 1.4375 0 L 1.4375 -25.046875 Z M 6.6875 -12.375 C 7.738281 -12.375 8.515625 -12.628906 9.015625 -13.140625 C 9.515625 -13.660156 9.765625 -14.53125 9.765625 -15.75 L 9.765625 -19.078125 C 9.765625 -20.210938 9.539062 -21.066406 9.09375 -21.640625 C 8.65625 -22.210938 7.925781 -22.5 6.90625 -22.5 L 4.21875 -22.5 L 4.21875 -12.375 Z M 6.6875 -12.375" transform="translate(104.411 30.505)"/></g></g></g><g fill="#382CB8"><g><g><path d="M 6.90625 -25.046875 C 8.882812 -25.046875 10.3125 -24.503906 11.1875 -23.421875 C 12.070312 -22.335938 12.515625 -20.835938 12.515625 -18.921875 L 12.515625 -15.921875 C 12.515625 -13.921875 12.046875 -12.410156 11.109375 -11.390625 C 10.171875 -10.378906 8.695312 -9.875 6.6875 -9.875 L 4.21875 -9.875 L 4.21875 0 L 1.4375 0 L 1.4375 -25.046875 Z M 6.6875 -12.375 C 7.738281 -12.375 8.515625 -12.628906 9.015625 -13.140625 C 9.515625 -13.660156 9.765625 -14.53125 9.765625 -15.75 L 9.765625 -19.078125 C 9.765625 -20.210938 9.539062 -21.066406 9.09375 -21.640625 C 8.65625 -22.210938 7.925781 -22.5 6.90625 -22.5 L 4.21875 -22.5 L 4.21875 -12.375 Z M 6.6875 -12.375" transform="translate(117.786 30.505)"/></g></g></g><g fill="#382CB8"><g><g><path d="M 6.6875 -25.296875 C 8.59375 -25.296875 10 -24.726562 10.90625 -23.59375 C 11.8125 -22.457031 12.265625 -20.9375 12.265625 -19.03125 L 12.265625 -18.359375 L 9.625 -18.359375 L 9.625 -19.171875 C 9.625 -20.316406 9.394531 -21.195312 8.9375 -21.8125 C 8.488281 -22.4375 7.765625 -22.75 6.765625 -22.75 C 5.765625 -22.75 5.035156 -22.4375 4.578125 -21.8125 C 4.128906 -21.195312 3.90625 -20.332031 3.90625 -19.21875 C 3.90625 -18.28125 4.113281 -17.46875 4.53125 -16.78125 C 4.945312 -16.09375 5.460938 -15.453125 6.078125 -14.859375 C 6.703125 -14.273438 7.378906 -13.703125 8.109375 -13.140625 C 8.835938 -12.585938 9.507812 -11.976562 10.125 -11.3125 C 10.75 -10.644531 11.269531 -9.882812 11.6875 -9.03125 C 12.101562 -8.1875 12.3125 -7.179688 12.3125 -6.015625 C 12.3125 -4.109375 11.847656 -2.585938 10.921875 -1.453125 C 10.003906 -0.316406 8.582031 0.25 6.65625 0.25 C 4.71875 0.25 3.296875 -0.316406 2.390625 -1.453125 C 1.484375 -2.585938 1.03125 -4.109375 1.03125 -6.015625 L 1.03125 -7.4375 L 3.65625 -7.4375 L 3.65625 -5.875 C 3.65625 -4.726562 3.890625 -3.84375 4.359375 -3.21875 C 4.835938 -2.601562 5.578125 -2.296875 6.578125 -2.296875 C 7.585938 -2.296875 8.328125 -2.601562 8.796875 -3.21875 C 9.273438 -3.84375 9.515625 -4.726562 9.515625 -5.875 C 9.515625 -6.800781 9.304688 -7.601562 8.890625 -8.28125 C 8.472656 -8.957031 7.953125 -9.585938 7.328125 -10.171875 C 6.710938 -10.765625 6.046875 -11.335938 5.328125 -11.890625 C 4.617188 -12.453125 3.953125 -13.066406 3.328125 -13.734375 C 2.703125 -14.398438 2.179688 -15.15625 1.765625 -16 C 1.347656 -16.851562 1.140625 -17.863281 1.140625 -19.03125 C 1.140625 -20.96875 1.59375 -22.492188 2.5 -23.609375 C 3.40625 -24.734375 4.800781 -25.296875 6.6875 -25.296875 Z M 6.6875 -25.296875" transform="translate(131.162 30.505)"/></g></g></g><path fill="#392CB8" d="M 163.003906 16.59375 L 163.003906 17.675781 C 163.015625 17.773438 163.035156 17.867188 163.0625 17.960938 C 163.09375 18.054688 163.128906 18.148438 163.175781 18.234375 C 163.222656 18.320312 163.273438 18.402344 163.335938 18.480469 C 163.394531 18.558594 163.460938 18.628906 163.535156 18.695312 C 163.609375 18.761719 163.6875 18.816406 163.773438 18.871094 C 163.855469 18.921875 163.945312 18.964844 164.035156 19 C 164.128906 19.03125 164.222656 19.058594 164.320312 19.078125 C 164.414062 19.09375 164.511719 19.105469 164.613281 19.105469 L 165.191406 19.105469 L 165.191406 16.589844 C 165.191406 16.410156 165.183594 16.234375 165.164062 16.054688 C 165.148438 15.878906 165.121094 15.703125 165.085938 15.527344 C 165.050781 15.351562 165.007812 15.179688 164.953125 15.007812 C 164.902344 14.835938 164.84375 14.667969 164.773438 14.503906 C 164.707031 14.339844 164.628906 14.175781 164.542969 14.019531 C 164.460938 13.863281 164.367188 13.710938 164.269531 13.5625 C 164.171875 13.414062 164.0625 13.269531 163.949219 13.128906 C 163.835938 12.992188 163.71875 12.859375 163.589844 12.734375 C 163.464844 12.609375 163.332031 12.488281 163.195312 12.375 C 163.054688 12.261719 162.914062 12.15625 162.765625 12.054688 C 162.617188 11.957031 162.464844 11.863281 162.304688 11.78125 C 162.148438 11.695312 161.988281 11.621094 161.820312 11.550781 C 161.65625 11.484375 161.488281 11.421875 161.316406 11.371094 C 161.148438 11.316406 160.972656 11.273438 160.796875 11.238281 C 160.625 11.203125 160.445312 11.179688 160.269531 11.160156 C 160.089844 11.144531 159.914062 11.132812 159.734375 11.132812 L 154.933594 11.132812 L 154.933594 11.640625 C 155 12.257812 155.351562 13.222656 156.867188 13.324219 L 159.734375 13.324219 C 159.839844 13.324219 159.949219 13.328125 160.054688 13.339844 C 160.160156 13.347656 160.265625 13.363281 160.371094 13.386719 C 160.476562 13.40625 160.582031 13.433594 160.683594 13.464844 C 160.785156 13.496094 160.886719 13.53125 160.984375 13.574219 C 161.082031 13.613281 161.179688 13.660156 161.273438 13.710938 C 161.367188 13.761719 161.460938 13.816406 161.550781 13.875 C 161.636719 13.933594 161.722656 13.996094 161.808594 14.066406 C 161.890625 14.132812 161.96875 14.207031 162.042969 14.28125 C 162.121094 14.355469 162.191406 14.4375 162.257812 14.519531 C 162.328125 14.601562 162.390625 14.6875 162.449219 14.777344 C 162.511719 14.863281 162.566406 14.957031 162.617188 15.050781 C 162.664062 15.144531 162.710938 15.242188 162.753906 15.339844 C 162.792969 15.441406 162.828125 15.539062 162.859375 15.640625 C 162.890625 15.746094 162.917969 15.847656 162.9375 15.953125 C 162.960938 16.058594 162.976562 16.164062 162.984375 16.269531 C 162.996094 16.378906 163.003906 16.484375 163.003906 16.589844"/><path fill="#392CB8" d="M 160.871094 17.398438 L 160.871094 16.3125 C 160.859375 16.214844 160.839844 16.121094 160.8125 16.027344 C 160.78125 15.933594 160.742188 15.84375 160.699219 15.753906 C 160.652344 15.667969 160.601562 15.585938 160.539062 15.507812 C 160.476562 15.429688 160.410156 15.359375 160.335938 15.292969 C 160.265625 15.230469 160.183594 15.171875 160.101562 15.121094 C 160.015625 15.070312 159.929688 15.027344 159.835938 14.992188 C 159.746094 14.957031 159.652344 14.929688 159.554688 14.914062 C 159.457031 14.894531 159.359375 14.886719 159.261719 14.886719 L 158.683594 14.886719 L 158.683594 17.398438 C 158.683594 17.578125 158.691406 17.753906 158.710938 17.933594 C 158.726562 18.113281 158.753906 18.289062 158.789062 18.464844 C 158.824219 18.636719 158.867188 18.8125 158.917969 18.980469 C 158.972656 19.152344 159.03125 19.320312 159.101562 19.484375 C 159.167969 19.652344 159.246094 19.8125 159.328125 19.96875 C 159.414062 20.128906 159.503906 20.28125 159.605469 20.429688 C 159.703125 20.578125 159.808594 20.71875 159.921875 20.859375 C 160.035156 20.996094 160.15625 21.128906 160.28125 21.253906 C 160.410156 21.382812 160.542969 21.5 160.679688 21.613281 C 160.816406 21.726562 160.960938 21.835938 161.109375 21.933594 C 161.257812 22.03125 161.410156 22.125 161.566406 22.207031 C 161.726562 22.292969 161.886719 22.371094 162.050781 22.4375 C 162.21875 22.507812 162.386719 22.566406 162.554688 22.617188 C 162.726562 22.671875 162.898438 22.714844 163.074219 22.75 C 163.25 22.785156 163.425781 22.808594 163.605469 22.828125 C 163.78125 22.847656 163.960938 22.855469 164.140625 22.855469 L 168.941406 22.855469 L 168.941406 22.347656 C 168.875 21.734375 168.523438 20.765625 167.003906 20.667969 L 164.140625 20.667969 C 164.03125 20.664062 163.925781 20.660156 163.820312 20.648438 C 163.710938 20.640625 163.605469 20.625 163.5 20.601562 C 163.398438 20.582031 163.292969 20.554688 163.191406 20.523438 C 163.089844 20.492188 162.988281 20.457031 162.890625 20.417969 C 162.789062 20.375 162.695312 20.328125 162.597656 20.277344 C 162.503906 20.230469 162.414062 20.171875 162.324219 20.113281 C 162.234375 20.054688 162.148438 19.992188 162.066406 19.921875 C 161.984375 19.855469 161.90625 19.785156 161.828125 19.707031 C 161.753906 19.632812 161.683594 19.554688 161.613281 19.46875 C 161.546875 19.386719 161.484375 19.300781 161.421875 19.214844 C 161.363281 19.125 161.308594 19.03125 161.257812 18.9375 C 161.207031 18.84375 161.164062 18.746094 161.121094 18.648438 C 161.082031 18.550781 161.042969 18.449219 161.011719 18.347656 C 160.980469 18.246094 160.957031 18.140625 160.933594 18.035156 C 160.914062 17.929688 160.898438 17.824219 160.886719 17.71875 C 160.878906 17.613281 160.871094 17.503906 160.871094 17.398438"/><path fill="#392CB8" d="M 164.082031 11.136719 C 164.011719 11.136719 163.941406 11.136719 163.871094 11.140625 C 164.28125 11.429688 164.660156 11.761719 165.003906 12.128906 C 165.347656 12.496094 165.648438 12.894531 165.914062 13.324219 L 166.949219 13.324219 C 168.46875 13.222656 168.816406 12.257812 168.886719 11.640625 L 168.886719 11.136719 Z M 164.082031 11.136719"/><path fill="#392CB8" d="M 157.945312 20.570312 L 157.832031 20.453125 L 156.949219 20.453125 L 156.949219 18.289062 C 156.851562 17.804688 156.796875 17.316406 156.796875 16.824219 L 154.910156 16.824219 L 154.910156 22.492188 L 159.5625 22.492188 C 158.917969 21.941406 158.378906 21.300781 157.945312 20.570312"/><path fill="#392CB8" d="M 156.949219 16.824219 L 156.796875 16.824219 C 156.800781 17.316406 156.851562 17.804688 156.949219 18.289062 Z M 156.949219 16.824219"/><g clip-path="url(#a)"><path transform="rotate(-44.999 90.492 -160.485) scale(.08107)" fill="none" d="M 380.222232 191.613964 C 380.222232 194.680327 380.12002 197.78076 379.983737 200.847123 C 379.813384 203.947556 379.60896 207.013919 379.302323 210.114353 C 379.029758 213.180715 378.620909 216.247078 378.17799 219.27937 C 377.701001 222.345733 377.18994 225.378025 376.610738 228.410317 C 375.997466 231.408539 375.316052 234.474901 374.532426 237.439052 C 373.816941 240.403203 372.999244 243.401424 372.079335 246.365575 C 371.193497 249.295655 370.239518 252.225735 369.217397 255.155815 C 368.161205 258.051824 367.036872 260.947833 365.844398 263.775701 C 364.685994 266.63764 363.425378 269.465508 362.130692 272.259305 C 360.801935 275.019031 359.405036 277.778758 357.939996 280.538484 C 356.474956 283.23007 354.975845 285.955725 353.374522 288.579169 C 351.80727 291.236684 350.171877 293.826057 348.434271 296.381359 C 346.730736 298.970732 344.95906 301.491964 343.119242 303.945054 C 341.245354 306.432215 339.371466 308.851234 337.429436 311.270254 C 335.453335 313.655203 333.443164 316.006081 331.364852 318.288817 C 329.286539 320.571554 327.140085 322.78615 324.959561 324.966674 C 322.779036 327.147199 320.564441 329.293653 318.281704 331.371965 C 315.998967 333.450278 313.648089 335.460449 311.26314 337.43655 C 308.878191 339.344509 306.425101 341.252468 303.972011 343.092285 C 301.48485 344.966174 298.963618 346.73785 296.374245 348.441385 C 293.853014 350.14492 291.22957 351.814384 288.572056 353.381636 C 285.948612 354.982959 283.222956 356.482069 280.531371 357.947109 C 277.805715 359.378079 275.045989 360.774977 272.252191 362.137805 C 269.458394 363.432492 266.630526 364.693108 263.768588 365.851511 C 260.94072 367.043986 258.044711 368.168319 255.148701 369.22451 C 252.252692 370.212561 249.288541 371.200611 246.358461 372.086449 C 243.394311 373.006358 240.43016 373.789984 237.431938 374.539539 C 234.467788 375.323165 231.435496 375.970509 228.403204 376.617852 C 225.370911 377.197054 222.338619 377.708114 219.272257 378.185104 C 216.239965 378.628023 213.173602 379.036871 210.107239 379.309437 C 207.006805 379.616073 203.940443 379.820497 200.840009 379.990851 C 197.773646 380.127134 194.673213 380.229346 191.60685 380.229346 C 188.540487 380.229346 185.440054 380.127134 182.373691 379.990851 C 179.273258 379.820497 176.206895 379.616073 173.106461 379.309437 C 170.074169 379.002801 166.973736 378.628023 163.941444 378.185104 C 160.875081 377.708114 157.842789 377.197054 154.810497 376.617852 C 151.812275 376.004579 148.779983 375.289095 145.781762 374.539539 C 142.78354 373.789984 139.81939 373.006358 136.855239 372.086449 C 133.925159 371.200611 130.961008 370.212561 128.064999 369.22451 C 125.16899 368.168319 122.272981 367.043986 119.445113 365.851511 C 116.583174 364.693108 113.755306 363.432492 110.961509 362.137805 C 108.167712 360.774977 105.442056 359.412149 102.682329 357.947109 C 99.990744 356.482069 97.299159 354.948888 94.641645 353.381636 C 91.98413 351.814384 89.394757 350.17899 86.839455 348.441385 C 84.250082 346.73785 81.72885 344.966174 79.241689 343.092285 C 76.788599 341.252468 74.335509 339.344509 71.984631 337.402479 C 69.565611 335.460449 67.214733 333.450278 64.931996 331.371965 C 62.64926 329.293653 60.434664 327.147199 58.25414 324.966674 C 56.073615 322.78615 53.927161 320.571554 51.848849 318.288817 C 49.770536 316.006081 47.760365 313.655203 45.818335 311.236183 C 43.876305 308.885305 41.968346 306.432215 40.128529 303.979124 C 38.25464 301.491964 36.482964 298.970732 34.779429 296.381359 C 33.041823 293.826057 31.40643 291.236684 29.839178 288.579169 C 28.271926 285.921655 26.738744 283.23007 25.273704 280.538484 C 23.808664 277.778758 22.445836 275.053102 21.083009 272.259305 C 19.788322 269.465508 18.527706 266.63764 17.369303 263.775701 C 16.176828 260.947833 15.052495 258.051824 13.996303 255.155815 C 12.974183 252.225735 12.020203 249.295655 11.134365 246.365575 C 10.214456 243.401424 9.43083 240.437273 8.681275 237.439052 C 7.931719 234.440831 7.216235 231.408539 6.602962 228.410317 C 6.02376 225.378025 5.5127 222.345733 5.03571 219.27937 C 4.592791 216.247078 4.218013 213.146645 3.911377 210.114353 C 3.604741 207.013919 3.400317 203.947556 3.229963 200.847123 C 3.09368 197.78076 2.991468 194.680327 2.991468 191.613964 C 2.991468 188.547601 3.09368 185.447167 3.229963 182.380805 C 3.400317 179.280371 3.604741 176.214008 3.911377 173.113575 C 4.183943 170.047212 4.592791 166.980849 5.03571 163.948557 C 5.5127 160.882194 6.02376 157.849902 6.602962 154.81761 C 7.250305 151.785318 7.897649 148.753026 8.647204 145.754805 C 9.43083 142.790654 10.214456 139.826503 11.134365 136.862353 C 12.020203 133.932273 13.008253 130.968122 13.996303 128.072113 C 15.052495 125.176103 16.176828 122.280094 17.335232 119.418155 C 18.527706 116.590288 19.788322 113.76242 21.083009 110.968622 C 22.445836 108.174825 23.842735 105.415099 25.273704 102.689443 C 26.704674 99.963787 28.237855 97.272202 29.839178 94.648758 C 31.40643 91.991244 33.075894 89.3678 34.779429 86.846569 C 36.482964 84.257196 38.25464 81.735964 40.128529 79.248803 C 41.968346 76.795713 43.876305 74.342623 45.784264 71.957674 C 47.760365 69.572725 49.770536 67.221847 51.848849 64.93911 C 53.927161 62.656373 56.073615 60.441778 58.25414 58.261253 C 60.434664 56.080729 62.64926 53.934275 64.931996 51.855962 C 67.214733 49.77765 69.565611 47.767478 71.95056 45.791378 C 74.36958 43.849348 76.788599 41.97546 79.27576 40.101571 C 81.72885 38.261754 84.250082 36.490077 86.839455 34.786543 C 89.394757 33.048937 91.98413 31.413544 94.641645 29.846291 C 97.265088 28.244969 99.956674 26.711787 102.682329 25.280818 C 105.442056 23.815778 108.201782 22.418879 110.961509 21.090122 C 113.755306 19.795436 116.583174 18.53482 119.411042 17.342345 C 122.272981 16.183942 125.16899 15.059609 128.064999 14.003417 C 130.995079 12.981296 133.925159 12.027317 136.855239 11.141478 C 139.81939 10.22157 142.817611 9.403873 145.747691 8.654318 C 148.745913 7.904762 151.812275 7.223348 154.810497 6.610076 C 157.842789 6.030874 160.875081 5.519813 163.941444 5.042824 C 166.973736 4.599904 170.040099 4.191056 173.106461 3.918491 C 176.206895 3.611854 179.273258 3.40743 182.373691 3.237077 C 185.440054 3.100794 188.540487 2.998582 191.60685 2.998582 C 194.673213 2.998582 197.773646 3.100794 200.840009 3.237077 C 203.974513 3.373359 207.006805 3.611854 210.107239 3.918491 C 213.173602 4.191056 216.239965 4.599904 219.272257 5.042824 C 222.338619 5.519813 225.370911 6.030874 228.403204 6.610076 C 231.401425 7.223348 234.467788 7.904762 237.466009 8.654318 C 240.464231 9.403873 243.394311 10.22157 246.358461 11.141478 C 249.322612 11.993246 252.218621 12.981296 255.148701 14.003417 C 258.044711 15.059609 260.94072 16.183942 263.802658 17.342345 C 266.630526 18.53482 269.458394 19.795436 272.252191 21.090122 C 275.045989 22.45295 277.771644 23.815778 280.531371 25.280818 C 283.257027 26.711787 285.948612 28.244969 288.572056 29.846291 C 291.22957 31.413544 293.818943 33.048937 296.374245 34.786543 C 298.963618 36.490077 301.48485 38.261754 303.972011 40.135642 C 306.459172 41.941389 308.878191 43.883419 311.26314 45.791378 C 313.648089 47.767478 315.998967 49.77765 318.281704 51.855962 C 320.564441 53.934275 322.813107 56.046658 324.993631 58.227183 C 327.174156 60.407707 329.286539 62.656373 331.364852 64.93911 C 333.443164 67.221847 335.453335 69.572725 337.429436 71.957674 C 339.337395 74.342623 341.279425 76.761642 343.085172 79.248803 C 344.95906 81.735964 346.730736 84.257196 348.434271 86.846569 C 350.171877 89.401871 351.80727 91.991244 353.374522 94.648758 C 354.975845 97.272202 356.509027 99.963787 357.939996 102.689443 C 359.405036 105.449169 360.767864 108.174825 362.130692 110.968622 C 363.425378 113.76242 364.685994 116.590288 365.878468 119.418155 C 367.036872 122.280094 368.161205 125.176103 369.217397 128.072113 C 370.205447 130.968122 371.227568 133.898202 372.079335 136.862353 C 372.999244 139.826503 373.816941 142.756583 374.566496 145.754805 C 375.316052 148.753026 375.963395 151.785318 376.610738 154.81761 C 377.18994 157.849902 377.701001 160.882194 378.17799 163.948557 C 378.620909 166.980849 379.029758 170.047212 379.302323 173.113575 C 379.60896 176.214008 379.847454 179.2463 379.983737 182.380805 C 380.12002 185.447167 380.222232 188.547601 380.222232 191.613964 Z M 380.222232 191.613964" stroke="#392CB8" stroke-width="6" stroke-miterlimit="10"/></g><g><g><g><path d="M 1.4375 -25.046875 L 7.65625 -25.046875 C 9.632812 -25.046875 11.109375 -24.519531 12.078125 -23.46875 C 13.046875 -22.414062 13.53125 -20.878906 13.53125 -18.859375 L 13.53125 -6.1875 C 13.53125 -4.164062 13.046875 -2.628906 12.078125 -1.578125 C 11.109375 -0.523438 9.632812 0 7.65625 0 L 1.4375 0 Z M 5.359375 -21.46875 L 5.359375 -3.578125 L 7.578125 -3.578125 C 8.203125 -3.578125 8.691406 -3.753906 9.046875 -4.109375 C 9.410156 -4.472656 9.59375 -5.109375 9.59375 -6.015625 L 9.59375 -19.03125 C 9.59375 -19.9375 9.410156 -20.566406 9.046875 -20.921875 C 8.691406 -21.285156 8.203125 -21.46875 7.578125 -21.46875 Z M 5.359375 -21.46875" transform="translate(30.53 30.463)"/></g></g></g><g><g><g><path d="M 12.84375 -9.34375 L 12.84375 -6.015625 C 12.84375 -3.984375 12.347656 -2.425781 11.359375 -1.34375 C 10.367188 -0.257812 8.910156 0.28125 6.984375 0.28125 C 5.046875 0.28125 3.582031 -0.257812 2.59375 -1.34375 C 1.601562 -2.425781 1.109375 -3.984375 1.109375 -6.015625 L 1.109375 -19.03125 C 1.109375 -21.0625 1.601562 -22.617188 2.59375 -23.703125 C 3.582031 -24.785156 5.046875 -25.328125 6.984375 -25.328125 C 8.910156 -25.328125 10.367188 -24.785156 11.359375 -23.703125 C 12.347656 -22.617188 12.84375 -21.0625 12.84375 -19.03125 L 12.84375 -16.609375 L 9.125 -16.609375 L 9.125 -19.28125 C 9.125 -20.1875 8.9375 -20.820312 8.5625 -21.1875 C 8.195312 -21.5625 7.703125 -21.75 7.078125 -21.75 C 6.460938 -21.75 5.96875 -21.5625 5.59375 -21.1875 C 5.226562 -20.820312 5.046875 -20.1875 5.046875 -19.28125 L 5.046875 -5.765625 C 5.046875 -4.859375 5.226562 -4.222656 5.59375 -3.859375 C 5.96875 -3.503906 6.460938 -3.328125 7.078125 -3.328125 C 7.703125 -3.328125 8.195312 -3.503906 8.5625 -3.859375 C 8.9375 -4.222656 9.125 -4.859375 9.125 -5.765625 L 9.125 -9.34375 Z M 12.84375 -9.34375" transform="translate(45.129 30.463)"/></g></g></g><g><g><g><path d="M 12.84375 -9.34375 L 12.84375 -6.015625 C 12.84375 -3.984375 12.347656 -2.425781 11.359375 -1.34375 C 10.367188 -0.257812 8.910156 0.28125 6.984375 0.28125 C 5.046875 0.28125 3.582031 -0.257812 2.59375 -1.34375 C 1.601562 -2.425781 1.109375 -3.984375 1.109375 -6.015625 L 1.109375 -19.03125 C 1.109375 -21.0625 1.601562 -22.617188 2.59375 -23.703125 C 3.582031 -24.785156 5.046875 -25.328125 6.984375 -25.328125 C 8.910156 -25.328125 10.367188 -24.785156 11.359375 -23.703125 C 12.347656 -22.617188 12.84375 -21.0625 12.84375 -19.03125 L 12.84375 -16.609375 L 9.125 -16.609375 L 9.125 -19.28125 C 9.125 -20.1875 8.9375 -20.820312 8.5625 -21.1875 C 8.195312 -21.5625 7.703125 -21.75 7.078125 -21.75 C 6.460938 -21.75 5.96875 -21.5625 5.59375 -21.1875 C 5.226562 -20.820312 5.046875 -20.1875 5.046875 -19.28125 L 5.046875 -5.765625 C 5.046875 -4.859375 5.226562 -4.222656 5.59375 -3.859375 C 5.96875 -3.503906 6.460938 -3.328125 7.078125 -3.328125 C 7.703125 -3.328125 8.195312 -3.503906 8.5625 -3.859375 C 8.9375 -4.222656 9.125 -4.859375 9.125 -5.765625 L 9.125 -9.34375 Z M 12.84375 -9.34375" transform="translate(58.94 30.463)"/></g></g></g></svg>